<svg id="icon" fill="currentColor" width="24px" height="24px" version="1.1" xmlns="http://www.w3.org/2000/svg" xmlns:xlink="http://www.w3.org/1999/xlink" 
	 viewBox="0 0 512 512" xml:space="preserve">
		<path d="M490.667,85.333h-64v-64C426.667,9.557,417.131,0,405.333,0h-384C9.536,0,0,9.557,0,21.333V448
			c0,11.776,9.536,21.333,21.333,21.333h64v21.333c0,11.776,9.536,21.333,21.333,21.333h384c11.797,0,21.333-9.557,21.333-21.333
			v-384C512,94.891,502.464,85.333,490.667,85.333z M85.333,106.667v320H42.667v-384H384v42.667H106.667
			C94.869,85.333,85.333,94.891,85.333,106.667z M405.333,320H320v85.333c0,11.776-9.536,21.333-21.333,21.333
			c-11.797,0-21.333-9.557-21.333-21.333V320H192c-11.797,0-21.333-9.557-21.333-21.333s9.536-21.333,21.333-21.333h85.333V192
			c0-11.776,9.536-21.333,21.333-21.333c11.797,0,21.333,9.557,21.333,21.333v85.333h85.333c11.797,0,21.333,9.557,21.333,21.333
			S417.131,320,405.333,320z"/>
</svg>