<svg id="icon" xmlns="http://www.w3.org/2000/svg" width="24px" height="24px" viewBox="-10 -10 135 135">
  <path
    fill="currentColor"
    d="M0,67.85h23.9l-0.96,41.38H0V67.85L0,67.85z M77.87,25.7v0.99c1.73-2.54,3.76-4.55,6.09-6.15 c3.75-2.57,8.24-4.04,13.56-4.98c0.85-0.15,1.67,0.42,1.82,1.28c0.15,0.85-0.42,1.67-1.28,1.82c-4.9,0.86-9,2.19-12.33,4.48 c-2.69,1.85-4.92,4.34-6.73,7.76c12.77,1.28,20.32,0.03,25.81-3.96c5.44-3.96,9.11-10.8,13.91-20.65 c-1.41,0.08-2.88,0.15-4.38,0.22c-9.67,0.45-20.27,0.94-26.89,6.76c-1.69,1.49-3.35,3.27-4.96,5.37 C80.94,20.66,79.4,23.01,77.87,25.7L77.87,25.7z M73.12,17.66c-0.54-0.72-1.14-1.29-1.8-1.76c-1.3-0.9-2.9-1.43-4.81-1.85 c-0.85-0.18-1.39-1.02-1.2-1.87c0.18-0.85,1.02-1.39,1.87-1.2c2.27,0.5,4.22,1.16,5.91,2.32c-0.12-0.38-0.26-0.76-0.41-1.13 c-0.8-1.97-1.98-3.77-3.6-5.19C67.2,5.33,64.8,5.03,62.6,4.75l-0.05-0.01L51.02,4.03L54,10.19c2.09,3.74,4.91,5.82,8.38,6.83 C65.43,17.9,69.04,18,73.12,17.66L73.12,17.66z M74.35,21.4c-4.87,0.47-9.23,0.4-13.03-0.7c-4.46-1.29-8.06-3.95-10.7-8.71 c-0.02-0.03-0.04-0.07-0.05-0.1l0,0l-4.42-9.14c-0.46-0.95-0.06-2.1,0.89-2.56c0.3-0.15,0.63-0.21,0.95-0.19v0l14.81,0.91 c0.08,0,0.16,0.01,0.24,0.03l0.05,0.01c2.77,0.35,5.79,0.73,8.53,3.14c2.09,1.84,3.61,4.14,4.62,6.64 c1.11,2.74,1.61,5.71,1.61,8.57c0,0.21-0.03,0.42-0.1,0.61c0.75-1.12,1.5-2.18,2.27-3.18c1.77-2.3,3.55-4.23,5.36-5.82 c7.44-6.54,18.62-7.06,28.83-7.54c2.36-0.11,4.66-0.22,6.98-0.41l0,0c0.27-0.02,0.55,0.02,0.81,0.15c0.78,0.38,1.11,1.31,0.73,2.09 c-5.61,11.58-9.57,19.52-16.08,24.25c-6.34,4.62-14.83,5.99-29.15,4.43v12.58c5.99-8.34,11.84-8.48,21.39-8.71 c2.05-0.05,4.28-0.1,6.82-0.26v0c0.26-0.02,0.52,0.03,0.77,0.15c0.78,0.38,1.11,1.31,0.73,2.09c-3.91,8.07-6.43,13.07-10.74,15.9 c-4.13,2.71-9.57,3.21-18.97,2.19v8.65l16.26,16.89l9.73-4.54c9-2.73,15.13,6.76,8.4,13.1c-13.15,9.1-26.58,16.53-40.29,22.47 c-9.99,5.76-19.83,5.33-29.54-0.69l-14.37-7.84l0.8-34.34l15.45,0.36c5.72,1.16,11.4,4.16,17.07,7.76l13.36-13.16V58.3 c-12.89,1.4-20.72,0.22-26.64-3.9c-6.08-4.23-9.88-11.37-14.98-21.91c-0.38-0.78-0.05-1.72,0.73-2.09c0.26-0.12,0.53-0.17,0.8-0.15 v0c2.1,0.16,4.23,0.25,6.43,0.34c9.44,0.37,20.08,0.79,26.79,6.7c3.14,2.76,5.35,5.06,6.87,7.6V21.4L74.35,21.4z M70.9,55.47 c-2.15-2.82-4.41-4.94-6.82-6.59c-2.96-2.03-6.19-3.39-9.73-4.51c-0.83-0.26-1.29-1.14-1.03-1.97c0.26-0.83,1.14-1.29,1.97-1.03 c3.8,1.2,7.29,2.67,10.55,4.91c2.83,1.94,5.47,4.45,7.94,7.81c-0.18-2.76-0.71-4.91-1.7-6.83c-1.29-2.51-3.44-4.77-6.68-7.63 c-5.89-5.18-15.93-5.57-24.84-5.92c-1.31-0.05-2.6-0.1-3.84-0.17c4.31,8.76,7.76,14.79,12.77,18.28 C54.28,55.14,60.68,56.29,70.9,55.47L70.9,55.47z M78.76,50.23c1.17-1.04,2.5-1.93,3.91-2.68c3.25-1.73,6.98-2.75,10.43-3.36 c0.85-0.15,1.67,0.42,1.82,1.28c0.15,0.85-0.42,1.67-1.28,1.82c-3.17,0.56-6.58,1.49-9.5,3.04c-2.13,1.13-4,2.6-5.3,4.5 c7.99,0.8,12.61,0.37,15.89-1.79c3.21-2.11,5.44-6.07,8.48-12.27c-1.49,0.06-2.92,0.09-4.27,0.13 C89.79,41.11,84.43,41.24,78.76,50.23L78.76,50.23z M75.9,69.93l-11.47,11.3l10.93,0.25c5.42,0.45,8.14,6.02,2.78,9.52 c-4.28,2.99-9.83,2.68-15.5,2.04c-3.92-0.28-4.21,4.99-0.12,5.1c1.42,0.14,2.97-0.15,4.32-0.12c7.1,0.16,12.98-1.06,16.69-6.59 l1.9-4.16l4.95-2.31L75.9,69.93L75.9,69.93z" />
</svg>
