<svg id="icon" width="24" height="24" viewBox="0 0 24 24" fill="none" xmlns="http://www.w3.org/2000/svg">
<path opacity="0.6" d="M20.78 22.0601H3.21997C3.02106 22.0601 2.83029 21.981 2.68964 21.8404C2.54899 21.6997 2.46997 21.509 2.46997 21.3101C2.46997 21.1111 2.54899 20.9204 2.68964 20.7797C2.83029 20.6391 3.02106 20.5601 3.21997 20.5601H20.78C20.9789 20.5601 21.1696 20.6391 21.3103 20.7797C21.451 20.9204 21.53 21.1111 21.53 21.3101C21.53 21.509 21.451 21.6997 21.3103 21.8404C21.1696 21.981 20.9789 22.0601 20.78 22.0601Z" fill="currentColor"/>
<g opacity="0.6">
<path d="M17.7899 6.22998H16.8299C16.1782 6.22998 15.6499 6.75828 15.6499 7.40998V17.87C15.6499 18.5217 16.1782 19.05 16.8299 19.05H17.7899C18.4416 19.05 18.9699 18.5217 18.9699 17.87V7.40998C18.9699 6.75828 18.4416 6.22998 17.7899 6.22998Z" fill="currentColor"/>
</g>
<path d="M11.9599 1.93994H11.2199C10.5075 1.93994 9.92993 2.51749 9.92993 3.22994V17.7599C9.92993 18.4724 10.5075 19.0499 11.2199 19.0499H11.9599C12.6724 19.0499 13.2499 18.4724 13.2499 17.7599V3.22994C13.2499 2.51749 12.6724 1.93994 11.9599 1.93994Z" fill="currentColor"/>
<g opacity="0.6">
<path d="M6.35997 11.1599H5.39997C4.74827 11.1599 4.21997 11.6882 4.21997 12.3399V17.8699C4.21997 18.5216 4.74827 19.0499 5.39997 19.0499H6.35997C7.01167 19.0499 7.53997 18.5216 7.53997 17.8699V12.3399C7.53997 11.6882 7.01167 11.1599 6.35997 11.1599Z" fill="currentColor"/>
</g>
</svg>
