<svg id="icon" width="16px" height="16px" viewBox="0 0 24 24" fill="none" xmlns="http://www.w3.org/2000/svg">
<path d="M16.9774 11L15.9815 10.9102C15.9563 11.1899 16.0498 11.4673 16.2393 11.6746C16.4287 11.8819 16.6966 12 16.9774 12V11ZM8.97059 18.9999L8.97773 17.9999H8.97059V18.9999ZM5.99988 10.5142L6.19881 11.4942C6.66583 11.3994 7.00108 10.9882 6.99988 10.5117L5.99988 10.5142ZM17.9734 11.0898C17.9909 10.8953 17.9999 10.6985 17.9999 10.5H15.9999C15.9999 10.6385 15.9936 10.7754 15.9815 10.9102L17.9734 11.0898ZM16.9999 10H16.9774V12H16.9999V10ZM21.9999 15C21.9999 12.2386 19.7613 10 16.9999 10V12C18.6567 12 19.9999 13.3431 19.9999 15H21.9999ZM16.9999 20C19.7613 20 21.9999 17.7614 21.9999 15H19.9999C19.9999 16.6569 18.6567 18 16.9999 18V20ZM8.99986 20H16.9999V18H8.99986V20ZM8.96345 19.9999C8.97555 20 8.98769 20 8.99986 20V18C8.9925 18 8.98512 18 8.97773 17.9999L8.96345 19.9999ZM8.97059 17.9999H6.857V19.9999H8.97059V17.9999ZM6.857 17.9999C5.04235 17.9999 3.57129 16.5288 3.57129 14.7142H1.57129C1.57129 17.6334 3.93778 19.9999 6.857 19.9999V17.9999ZM3.57129 14.7142C3.57129 13.1257 4.69946 11.7986 6.19881 11.4942L5.80095 9.53418C3.38787 10.024 1.57129 12.1558 1.57129 14.7142H3.57129ZM4.99986 10.5C4.99986 10.5056 4.99987 10.5111 4.99988 10.5167L6.99988 10.5117C6.99987 10.5078 6.99986 10.5039 6.99986 10.5H4.99986ZM11.4999 4C7.91001 4 4.99986 6.91015 4.99986 10.5H6.99986C6.99986 8.01472 9.01458 6 11.4999 6V4ZM17.9999 10.5C17.9999 6.91015 15.0897 4 11.4999 4V6C13.9851 6 15.9999 8.01472 15.9999 10.5H17.9999Z" fill="currentColor"/>
</svg>