<svg id="icon" width="16" height="4" viewBox="0 0 16 4" fill="none" xmlns="http://www.w3.org/2000/svg">
<path d="M2.49481 0C1.47555 0 0.641602 0.9 0.641602 2C0.641602 3.1 1.47555 4 2.49481 4C3.51408 4 4.34802 3.1 4.34802 2C4.34802 0.9 3.51408 0 2.49481 0ZM13.6141 0C12.5948 0 11.7609 0.9 11.7609 2C11.7609 3.1 12.5948 4 13.6141 4C14.6333 4 15.4673 3.1 15.4673 2C15.4673 0.9 14.6333 0 13.6141 0ZM8.05445 0C7.03518 0 6.20123 0.9 6.20123 2C6.20123 3.1 7.03518 4 8.05445 4C9.07371 4 9.90766 3.1 9.90766 2C9.90766 0.9 9.07371 0 8.05445 0Z" fill="currentColor"/>
</svg>
