<svg id="icon" width="24" height="24" viewBox="0 0 24 24" fill="none"
  xmlns="http://www.w3.org/2000/svg">
  <path d="M14 8H9M11 12H9" stroke="currentColor" stroke-width="2" stroke-linecap="round"
    stroke-linejoin="round" />
  <path
    d="M3 16H11C11 17.3333 11.8 20 15 20C16.6569 20 18 18.6569 18 17V10V4H19C20.1046 4 21 4.89543 21 6V8C21 9.10457 20.1046 10 19 10H18V17C18 18.6569 16.6569 20 15 20H5C3.89543 20 3 19.1046 3 18V16Z"
    fill="currentColor" />
  <path
    d="M15 20C11.8 20 11 17.3333 11 16H3V18C3 19.1046 3.89543 20 5 20H15ZM15 20C16.6569 20 18 18.6569 18 17V10M18 4H7C5.89543 4 5 4.89543 5 6V15.5M18 4H19C20.1046 4 21 4.89543 21 6V8C21 9.10457 20.1046 10 19 10H18M18 4V10"
    stroke="currentColor" stroke-width="2" stroke-linecap="round" stroke-linejoin="round" />
</svg>
